<?xml version="1.0" encoding="UTF-8" standalone="no"?>
<svg
   xmlns:dc="http://purl.org/dc/elements/1.1/"
   xmlns:cc="http://creativecommons.org/ns#"
   xmlns:rdf="http://www.w3.org/1999/02/22-rdf-syntax-ns#"
   xmlns:svg="http://www.w3.org/2000/svg"
   xmlns="http://www.w3.org/2000/svg"
   xmlns:sodipodi="http://sodipodi.sourceforge.net/DTD/sodipodi-0.dtd"
   xmlns:inkscape="http://www.inkscape.org/namespaces/inkscape"
   version="1.1"
   viewBox="0 0 296.228 296.228"
   enable-background="new 0 0 296.228 296.228"
   id="svg8"
   sodipodi:docname="time.svg"
   inkscape:export-filename="C:\Users\Stan\Downloads\icon-72x72.png"
   inkscape:export-xdpi="23.33"
   inkscape:export-ydpi="23.33"
   inkscape:version="0.92.0 r15299">
  <metadata
     id="metadata14">
    <rdf:RDF>
      <cc:Work
         rdf:about="">
        <dc:format>image/svg+xml</dc:format>
        <dc:type
           rdf:resource="http://purl.org/dc/dcmitype/StillImage" />
        <dc:title></dc:title>
      </cc:Work>
    </rdf:RDF>
  </metadata>
  <defs
     id="defs12" />
  <sodipodi:namedview
     pagecolor="#ffffff"
     bordercolor="#666666"
     borderopacity="1"
     objecttolerance="10"
     gridtolerance="10"
     guidetolerance="10"
     inkscape:pageopacity="1"
     inkscape:pageshadow="2"
     inkscape:window-width="1920"
     inkscape:window-height="1001"
     id="namedview10"
     showgrid="false"
     inkscape:zoom="0.79668364"
     inkscape:cx="148.114"
     inkscape:cy="148.114"
     inkscape:window-x="-9"
     inkscape:window-y="-9"
     inkscape:window-maximized="1"
     inkscape:current-layer="svg8" />
  <g
     id="g6"
     transform="matrix(0.8,0,0,0.8,29.6228,29.6227)"
     inkscape:export-xdpi="96"
     inkscape:export-ydpi="96">
    <path
       d="M 167.364,48.003 V 25 h 10.5 c 6.903,0 12.5,-5.597 12.5,-12.5 0,-6.903 -5.596,-12.5 -12.5,-12.5 h -59.5 c -6.903,0 -12.5,5.597 -12.5,12.5 0,6.903 5.597,12.5 12.5,12.5 h 10.5 V 48.003 C 69.126,57.288 23.26,109.074 23.26,171.373 c 0,68.845 56.01,124.854 124.854,124.854 68.844,0 124.854,-56.01 124.854,-124.854 0,-62.299 -45.866,-114.085 -105.604,-123.37 z m -19.25,223.225 c -55.06,0 -99.854,-44.795 -99.854,-99.854 0,-55.059 44.795,-99.854 99.854,-99.854 55.059,0 99.854,44.795 99.854,99.854 0,55.059 -44.794,99.854 -99.854,99.854 z"
       id="path2"
       inkscape:connector-curvature="0" />
    <path
       d="m 160.614,166.18 v -58.889 c 0,-6.903 -5.597,-12.5 -12.5,-12.5 -6.903,0 -12.5,5.597 -12.5,12.5 v 66.1 c 0,2.033 0.81,3.982 2.25,5.416 l 34.969,34.822 c 4.893,4.872 12.806,4.854 17.678,-0.037 4.871,-4.892 4.854,-12.807 -0.037,-17.678 z"
       id="path4"
       inkscape:connector-curvature="0" />
  </g>
</svg>
